<svg width="205" height="31" viewBox="0 0 205 31" fill="none" xmlns="http://www.w3.org/2000/svg">
<path d="M6.76953 1.5625V30H0.929688V1.5625H6.76953ZM19.4141 13.3789V30H13.7891V8.86719H19.0625L19.4141 13.3789ZM18.5938 18.6914H17.0703C17.0703 17.1289 17.2721 15.7227 17.6758 14.4727C18.0794 13.2096 18.6458 12.1354 19.375 11.25C20.1042 10.3516 20.9701 9.66797 21.9727 9.19922C22.9883 8.71745 24.1211 8.47656 25.3711 8.47656C26.3607 8.47656 27.2656 8.61979 28.0859 8.90625C28.9062 9.19271 29.6094 9.64844 30.1953 10.2734C30.7943 10.8984 31.25 11.7253 31.5625 12.7539C31.888 13.7826 32.0508 15.0391 32.0508 16.5234V30H26.3867V16.5039C26.3867 15.5664 26.2565 14.8372 25.9961 14.3164C25.7357 13.7956 25.3516 13.431 24.8438 13.2227C24.349 13.0013 23.737 12.8906 23.0078 12.8906C22.2526 12.8906 21.5951 13.0404 21.0352 13.3398C20.4883 13.6393 20.0326 14.056 19.668 14.5898C19.3164 15.1107 19.0495 15.7227 18.8672 16.4258C18.6849 17.1289 18.5938 17.8841 18.5938 18.6914ZM48.6797 8.86719V12.8516H36.375V8.86719H48.6797ZM39.4219 3.65234H45.0469V23.6328C45.0469 24.2448 45.125 24.7135 45.2812 25.0391C45.4505 25.3646 45.6979 25.5924 46.0234 25.7227C46.349 25.8398 46.7591 25.8984 47.2539 25.8984C47.6055 25.8984 47.918 25.8854 48.1914 25.8594C48.4779 25.8203 48.7188 25.7812 48.9141 25.7422L48.9336 29.8828C48.4518 30.0391 47.931 30.1628 47.3711 30.2539C46.8112 30.3451 46.1927 30.3906 45.5156 30.3906C44.2786 30.3906 43.1979 30.1888 42.2734 29.7852C41.362 29.3685 40.6589 28.7044 40.1641 27.793C39.6693 26.8815 39.4219 25.6836 39.4219 24.1992V3.65234ZM63.6094 30.3906C61.9688 30.3906 60.4974 30.1302 59.1953 29.6094C57.8932 29.0755 56.7865 28.3398 55.875 27.4023C54.9766 26.4648 54.2865 25.3776 53.8047 24.1406C53.3229 22.8906 53.082 21.5625 53.082 20.1562V19.375C53.082 17.7734 53.3099 16.3086 53.7656 14.9805C54.2214 13.6523 54.8724 12.5 55.7188 11.5234C56.5781 10.5469 57.6198 9.79818 58.8438 9.27734C60.0677 8.74349 61.4479 8.47656 62.9844 8.47656C64.4818 8.47656 65.8099 8.72396 66.9688 9.21875C68.1276 9.71354 69.0977 10.4167 69.8789 11.3281C70.6732 12.2396 71.2721 13.3333 71.6758 14.6094C72.0794 15.8724 72.2812 17.2786 72.2812 18.8281V21.1719H55.4844V17.4219H66.7539V16.9922C66.7539 16.2109 66.6107 15.5143 66.3242 14.9023C66.0508 14.2773 65.6341 13.7826 65.0742 13.418C64.5143 13.0534 63.7982 12.8711 62.9258 12.8711C62.1836 12.8711 61.5456 13.0339 61.0117 13.3594C60.4779 13.6849 60.0417 14.1406 59.7031 14.7266C59.3776 15.3125 59.1302 16.0026 58.9609 16.7969C58.8047 17.5781 58.7266 18.4375 58.7266 19.375V20.1562C58.7266 21.0026 58.8438 21.7839 59.0781 22.5C59.3255 23.2161 59.6706 23.8346 60.1133 24.3555C60.569 24.8763 61.1159 25.2799 61.7539 25.5664C62.4049 25.8529 63.1406 25.9961 63.9609 25.9961C64.9766 25.9961 65.9206 25.8008 66.793 25.4102C67.6784 25.0065 68.4401 24.401 69.0781 23.5938L71.8125 26.5625C71.3698 27.2005 70.7643 27.8125 69.9961 28.3984C69.2409 28.9844 68.3294 29.4661 67.2617 29.8438C66.194 30.2083 64.9766 30.3906 63.6094 30.3906ZM83.4219 0V30H77.7773V0H83.4219ZM96.0078 0V30H90.3633V0H96.0078ZM108.594 8.86719V30H102.949V8.86719H108.594ZM102.598 3.35938C102.598 2.53906 102.884 1.86198 103.457 1.32812C104.03 0.794271 104.798 0.527344 105.762 0.527344C106.712 0.527344 107.474 0.794271 108.047 1.32812C108.633 1.86198 108.926 2.53906 108.926 3.35938C108.926 4.17969 108.633 4.85677 108.047 5.39062C107.474 5.92448 106.712 6.19141 105.762 6.19141C104.798 6.19141 104.03 5.92448 103.457 5.39062C102.884 4.85677 102.598 4.17969 102.598 3.35938ZM127.723 25.3906V0H133.387V30H128.289L127.723 25.3906ZM114.363 19.6875V19.2773C114.363 17.6628 114.546 16.1979 114.91 14.8828C115.275 13.5547 115.809 12.4154 116.512 11.4648C117.215 10.5143 118.081 9.77865 119.109 9.25781C120.138 8.73698 121.31 8.47656 122.625 8.47656C123.862 8.47656 124.943 8.73698 125.867 9.25781C126.805 9.77865 127.599 10.5208 128.25 11.4844C128.914 12.4349 129.448 13.5612 129.852 14.8633C130.255 16.1523 130.548 17.5651 130.73 19.1016V20C130.548 21.4714 130.255 22.8385 129.852 24.1016C129.448 25.3646 128.914 26.4714 128.25 27.4219C127.599 28.3594 126.805 29.0885 125.867 29.6094C124.93 30.1302 123.836 30.3906 122.586 30.3906C121.271 30.3906 120.099 30.1237 119.07 29.5898C118.055 29.056 117.195 28.3073 116.492 27.3438C115.802 26.3802 115.275 25.2474 114.91 23.9453C114.546 22.6432 114.363 21.224 114.363 19.6875ZM119.988 19.2773V19.6875C119.988 20.5599 120.053 21.3737 120.184 22.1289C120.327 22.8841 120.555 23.5547 120.867 24.1406C121.193 24.7135 121.609 25.1628 122.117 25.4883C122.638 25.8008 123.27 25.957 124.012 25.957C124.975 25.957 125.77 25.7422 126.395 25.3125C127.02 24.8698 127.495 24.2643 127.82 23.4961C128.159 22.7279 128.354 21.8424 128.406 20.8398V18.2812C128.367 17.4609 128.25 16.7253 128.055 16.0742C127.872 15.4102 127.599 14.8438 127.234 14.375C126.883 13.9062 126.44 13.5417 125.906 13.2812C125.385 13.0208 124.767 12.8906 124.051 12.8906C123.322 12.8906 122.697 13.0599 122.176 13.3984C121.655 13.724 121.232 14.1732 120.906 14.7461C120.594 15.319 120.359 15.9961 120.203 16.7773C120.06 17.5456 119.988 18.3789 119.988 19.2773ZM138.883 19.6484V19.2383C138.883 17.6888 139.104 16.263 139.547 14.9609C139.99 13.6458 140.634 12.5065 141.48 11.543C142.327 10.5794 143.368 9.83073 144.605 9.29688C145.842 8.75 147.262 8.47656 148.863 8.47656C150.465 8.47656 151.891 8.75 153.141 9.29688C154.391 9.83073 155.439 10.5794 156.285 11.543C157.145 12.5065 157.796 13.6458 158.238 14.9609C158.681 16.263 158.902 17.6888 158.902 19.2383V19.6484C158.902 21.1849 158.681 22.6107 158.238 23.9258C157.796 25.2279 157.145 26.3672 156.285 27.3438C155.439 28.3073 154.397 29.056 153.16 29.5898C151.923 30.1237 150.504 30.3906 148.902 30.3906C147.301 30.3906 145.875 30.1237 144.625 29.5898C143.388 29.056 142.34 28.3073 141.48 27.3438C140.634 26.3672 139.99 25.2279 139.547 23.9258C139.104 22.6107 138.883 21.1849 138.883 19.6484ZM144.508 19.2383V19.6484C144.508 20.5339 144.586 21.3607 144.742 22.1289C144.898 22.8971 145.146 23.5742 145.484 24.1602C145.836 24.7331 146.292 25.1823 146.852 25.5078C147.411 25.8333 148.095 25.9961 148.902 25.9961C149.684 25.9961 150.354 25.8333 150.914 25.5078C151.474 25.1823 151.923 24.7331 152.262 24.1602C152.6 23.5742 152.848 22.8971 153.004 22.1289C153.173 21.3607 153.258 20.5339 153.258 19.6484V19.2383C153.258 18.3789 153.173 17.5716 153.004 16.8164C152.848 16.0482 152.594 15.3711 152.242 14.7852C151.904 14.1862 151.454 13.7174 150.895 13.3789C150.335 13.0404 149.658 12.8711 148.863 12.8711C148.069 12.8711 147.392 13.0404 146.832 13.3789C146.285 13.7174 145.836 14.1862 145.484 14.7852C145.146 15.3711 144.898 16.0482 144.742 16.8164C144.586 17.5716 144.508 18.3789 144.508 19.2383ZM173.09 25.9961C173.78 25.9961 174.392 25.8659 174.926 25.6055C175.46 25.332 175.876 24.9544 176.176 24.4727C176.488 23.9779 176.651 23.3984 176.664 22.7344H181.957C181.944 24.2188 181.547 25.5404 180.766 26.6992C179.984 27.8451 178.936 28.75 177.621 29.4141C176.306 30.0651 174.835 30.3906 173.207 30.3906C171.566 30.3906 170.134 30.1172 168.91 29.5703C167.699 29.0234 166.69 28.2682 165.883 27.3047C165.076 26.3281 164.47 25.1953 164.066 23.9062C163.663 22.6042 163.461 21.2109 163.461 19.7266V19.1602C163.461 17.6628 163.663 16.2695 164.066 14.9805C164.47 13.6784 165.076 12.5456 165.883 11.582C166.69 10.6055 167.699 9.84375 168.91 9.29688C170.121 8.75 171.54 8.47656 173.168 8.47656C174.9 8.47656 176.417 8.80859 177.719 9.47266C179.034 10.1367 180.062 11.0872 180.805 12.3242C181.56 13.5482 181.944 15 181.957 16.6797H176.664C176.651 15.9766 176.501 15.3385 176.215 14.7656C175.941 14.1927 175.538 13.737 175.004 13.3984C174.483 13.0469 173.839 12.8711 173.07 12.8711C172.25 12.8711 171.579 13.0469 171.059 13.3984C170.538 13.737 170.134 14.2057 169.848 14.8047C169.561 15.3906 169.359 16.0612 169.242 16.8164C169.138 17.5586 169.086 18.3398 169.086 19.1602V19.7266C169.086 20.5469 169.138 21.3346 169.242 22.0898C169.346 22.8451 169.542 23.5156 169.828 24.1016C170.128 24.6875 170.538 25.1497 171.059 25.4883C171.579 25.8268 172.257 25.9961 173.09 25.9961ZM198.645 24.1602C198.645 23.7565 198.527 23.3919 198.293 23.0664C198.059 22.7409 197.622 22.4414 196.984 22.168C196.359 21.8815 195.454 21.6211 194.27 21.3867C193.202 21.1523 192.206 20.8594 191.281 20.5078C190.37 20.1432 189.576 19.707 188.898 19.1992C188.234 18.6914 187.714 18.0924 187.336 17.4023C186.958 16.6992 186.77 15.8984 186.77 15C186.77 14.1146 186.958 13.2812 187.336 12.5C187.727 11.7188 188.28 11.0286 188.996 10.4297C189.725 9.81771 190.611 9.34245 191.652 9.00391C192.707 8.65234 193.892 8.47656 195.207 8.47656C197.043 8.47656 198.618 8.76953 199.934 9.35547C201.262 9.94141 202.277 10.7487 202.98 11.7773C203.697 12.793 204.055 13.9518 204.055 15.2539H198.43C198.43 14.707 198.312 14.2188 198.078 13.7891C197.857 13.3464 197.505 13.0013 197.023 12.7539C196.555 12.4935 195.943 12.3633 195.188 12.3633C194.562 12.3633 194.022 12.474 193.566 12.6953C193.111 12.9036 192.759 13.1901 192.512 13.5547C192.277 13.9062 192.16 14.2969 192.16 14.7266C192.16 15.0521 192.225 15.3451 192.355 15.6055C192.499 15.8529 192.727 16.0807 193.039 16.2891C193.352 16.4974 193.755 16.6927 194.25 16.875C194.758 17.0443 195.383 17.2005 196.125 17.3438C197.648 17.6562 199.009 18.0664 200.207 18.5742C201.405 19.069 202.355 19.7461 203.059 20.6055C203.762 21.4518 204.113 22.5651 204.113 23.9453C204.113 24.8828 203.905 25.7422 203.488 26.5234C203.072 27.3047 202.473 27.9883 201.691 28.5742C200.91 29.1471 199.973 29.5964 198.879 29.9219C197.798 30.2344 196.581 30.3906 195.227 30.3906C193.26 30.3906 191.594 30.0391 190.227 29.3359C188.872 28.6328 187.844 27.7409 187.141 26.6602C186.451 25.5664 186.105 24.4466 186.105 23.3008H191.438C191.464 24.069 191.659 24.6875 192.023 25.1562C192.401 25.625 192.876 25.9635 193.449 26.1719C194.035 26.3802 194.667 26.4844 195.344 26.4844C196.073 26.4844 196.678 26.3867 197.16 26.1914C197.642 25.9831 198.007 25.7096 198.254 25.3711C198.514 25.0195 198.645 24.6159 198.645 24.1602Z" fill="#1F497D"/>
</svg>
